<svg viewBox="0 0 258.41 90.88" xmlns="http://www.w3.org/2000/svg" data-name="Capa 1" id="Capa_1">
  <defs>
    <style>
      .cls-1 {
        fill: #063;
      }
    </style>
  </defs>
  <polygon points="216.36 48.82 226.97 61.13 216.62 61.13 211.55 54.87 210.73 61.13 201.25 61.13 205.42 31.8 203.92 30.33 214.74 30.33 212.93 44.05 218.58 40.23 228.88 40.23 216.36 48.82" class="cls-1"></polygon>
  <polygon points="197.52 40.23 194.55 61.13 185.07 61.13 187.83 41.7 186.33 40.23 197.52 40.23" class="cls-1"></polygon>
  <path d="M125,40.23l-2.53,17.82c-.23,1.63,1.03,3.08,2.67,3.08h21.7l2.53-17.82c.23-1.63-1.03-3.08-2.67-3.08h-21.7ZM138.05,56.38h-5.86l1.66-11.68h5.86l-1.66,11.68Z" class="cls-1"></path>
  <polygon points="88.5 33.15 87.85 37.66 86.3 37.66 71.36 37.67 71.35 37.67 70.47 43.83 85.42 43.77 84.79 48.21 69.86 48.17 68.75 55.92 68.76 55.92 83.68 56.01 85.25 56.01 84.52 61.13 58.53 61.13 62.31 34.62 60.8 33.15 88.5 33.15" class="cls-1"></polygon>
  <path d="M165.83,40.23l1.4-9.9h-11.19l1.5,1.47-4.17,29.33h22.48c1.34,0,2.49-.99,2.67-2.32l2.64-18.58h-15.34ZM169.4,56.38h-5.86l1.59-11.22h5.86l-1.59,11.22Z" class="cls-1"></path>
  <path d="M242.37,52.2l5.8-.09,8.57-.13,1.67-11.75h-23.83l-2.54,17.82c-.23,1.62,1.03,3.08,2.67,3.08h20.71l.7-4.95h0s.23-1.69.23-1.69l-1.22,1.7-7.59.11-5.81.09.59-4.19h0ZM243.43,44.7h5.79l-.39,2.72h-5.79l.39-2.72Z" class="cls-1"></path>
  <polygon points="118.59 40.23 108.76 61.13 98.86 61.13 98.27 58.98 93.54 41.69 92.02 40.22 102.63 40.22 104.97 49.87 105.42 51.71 111.13 40.23 118.59 40.23" class="cls-1"></polygon>
  <polygon points="198.48 33.23 197.72 38.62 188.24 38.62 189 33.23 198.48 33.23" class="cls-1"></polygon>
  <g>
    <path d="M35.85,0c-5.49,6.07-10.97,12.13-16.46,18.2,0,0,0,0,0,0,0,0,0,0,0,0-4.71,4.96-8.72,10.34-10,17.31-.77,4.18-.3,8.27.67,12.35.36,1.52.69,3.05,1.12,4.94.58-1.21.97-2.09,1.41-2.93,2.12-4.04,5.09-7.46,8.1-10.84,2.98-3.34,6-6.67,8.8-10.16,3.46-4.32,5.28-9.41,6.24-14.82.1-.59.23-1.17.4-2.03,1.58,2.47,2.33,4.91,2.68,7.5.8,5.91-.73,11.31-3.7,16.37-2.75,4.68-6.51,8.53-10.28,12.38-2.39,2.44-4.75,4.93-6.95,7.54-3.65,4.33-4.25,11.12-4.36,11.71,0,.03-.28,1.47-.28,1.47C3.88,53.6,2.28,48.59,2.28,48.59c-1.38-4.32-2.9-9.01-2.02-15.07.85-5.87,3.7-11.35,8.36-16.44,3.93-4.3,8.81-7.37,13.8-10.21,5.44-3.09,9.72-5.28,11.68-6.13.72-.31,1.33-.56,1.75-.73Z" class="cls-1"></path>
    <path d="M43.32,33.83c2.16,2.76,3.14,5.68,3.3,8.88.24,4.81-1.29,9.17-4.08,12.93-2.63,3.56-3.58,4.54-9.97,12.04-1.28,1.5-3.78,4.45-6.73,8.49-2.4,3.29-3.21,4.7-3.86,6.21-1.44,3.36-1.74,6.45-1.78,8.5h0c-.61-1.63-1.37-3.22-1.82-4.89-1.74-6.47-.35-12.5,2.83-18.23,2.38-4.28,5.63-7.87,9.02-11.36,2.5-2.57,5.02-5.12,7.44-7.77,2.91-3.18,3.57-5.29,3.89-6.02,1.53-3.52,1.77-6.75,1.75-8.78Z" class="cls-1"></path>
  </g>
  <g>
    <path d="M66.74,76.29h-8.4v-8.55h1.99v6.94h6.41v1.61Z" class="cls-1"></path>
    <path d="M78.05,76.29h-8.4v-8.55h1.99v6.94h6.41v1.61Z" class="cls-1"></path>
    <path d="M89.8,76.29h-8.83v-8.55h8.75v1.46h-6.76v1.91h3.94v1.46h-3.94v2.12h6.84v1.61Z" class="cls-1"></path>
    <path d="M103.43,74.27c0,.79-.15,1.33-.46,1.61-.3.28-.86.41-1.67.41h-5.9c-.81,0-1.36-.14-1.67-.41s-.46-.81-.46-1.61v-4.51c0-.8.15-1.33.46-1.61s.86-.42,1.67-.42h5.9c.85,0,1.42.15,1.7.44.28.29.42.86.42,1.7l-1.94.35v-.96h-6.21v5.42h6.21v-1.91h-3.25v-1.46h5.19v2.95Z" class="cls-1"></path>
    <path d="M117.35,76.29h-2.24l-1.03-1.87h-5.42l-.99,1.87h-1.99l4.84-8.55h1.92l4.9,8.55ZM113.26,72.87l-1.84-3.48-1.91,3.48h3.74Z" class="cls-1"></path>
    <path d="M136.54,76.29h-2.24l-1.03-1.87h-5.42l-.99,1.87h-1.99l4.84-8.55h1.92l4.9,8.55ZM132.44,72.87l-1.84-3.48-1.91,3.48h3.75Z" class="cls-1"></path>
    <path d="M153.62,69.26h-3.94v7.03h-1.99v-7.03h-3.93v-1.52h9.86v1.52Z" class="cls-1"></path>
    <path d="M165.7,74.27c0,.79-.15,1.33-.46,1.61-.3.28-.86.41-1.66.41h-5.4c-.81,0-1.36-.14-1.67-.41-.3-.28-.46-.81-.46-1.61v-6.53h1.99v6.94h5.67v-6.94h1.99v6.53Z" class="cls-1"></path>
    <path d="M186.87,71.96c0,1.66-.63,2.88-1.89,3.66-.72.44-1.89.66-3.51.66h-4.99v-8.55h5.5c1.48,0,2.64.33,3.48.99.94.73,1.41,1.81,1.41,3.23ZM184.81,71.93c0-1.78-.94-2.67-2.82-2.67h-3.53v5.42h2.57c1.22,0,2.1-.16,2.65-.46.75-.42,1.13-1.18,1.13-2.29Z" class="cls-1"></path>
    <path d="M199.34,76.29h-8.83v-8.55h8.75v1.46h-6.76v1.91h3.94v1.46h-3.94v2.12h6.84v1.61Z" class="cls-1"></path>
    <path d="M212.3,74.27c0,.79-.16,1.33-.46,1.61s-.87.41-1.67.41h-5.28c-.87,0-1.45-.15-1.72-.46s-.41-.91-.41-1.79l1.76-.36v1.01h6.05v-1.96h-5.34c-.81,0-1.36-.14-1.66-.41-.3-.28-.46-.81-.46-1.61v-.94c0-.8.15-1.33.46-1.61.3-.28.86-.42,1.66-.42h4.86c.82,0,1.38.14,1.67.42.3.28.45.82.45,1.63l-1.76.41v-.98h-5.6v1.84h5.33c.81,0,1.36.14,1.67.41s.46.81.46,1.61v1.18Z" class="cls-1"></path>
    <path d="M224.34,69.26h-3.94v7.03h-1.99v-7.03h-3.93v-1.52h9.86v1.52Z" class="cls-1"></path>
    <path d="M228.77,76.29h-1.99v-8.55h1.99v8.55Z" class="cls-1"></path>
    <path d="M243.18,76.29h-1.36l-6.28-5.29c-.26-.22-.5-.45-.71-.7.06.55.08.99.08,1.31v4.67h-1.79v-8.55h1.36l6.01,5.04c.43.36.76.67.98.93-.05-.8-.08-1.29-.08-1.48v-4.49h1.79v8.55Z" class="cls-1"></path>
    <path d="M257.89,74.27c0,.79-.15,1.33-.46,1.61-.3.28-.86.41-1.66.41h-6.3c-.81,0-1.36-.14-1.67-.41-.3-.28-.46-.81-.46-1.61v-4.51c0-.8.15-1.33.46-1.61.3-.28.86-.42,1.67-.42h6.3c.81,0,1.36.14,1.66.42.3.28.46.81.46,1.61v4.51ZM255.9,74.68v-5.42h-6.56v5.42h6.56Z" class="cls-1"></path>
  </g>
</svg>